# xmcd
#
# Track frame offsets:
#	150
#	17710
#	34704
#	57827
#	70287
#	85306
#	100954
#	114897
#	131941
#	147409
#	161563
#	177338
#	193650
#	211070
#	232930
#	249946
#	265006
#	279842
#
# Disc length: 3937 seconds
#
# Revision: 0
# Processed by: cddbd v1.5.2PL0 Copyright (c) Steve Scherf et al.
# Submitted via: EZCDAudioConverter 8.3.2.1
#
DISCID=f50f5f12
DTITLE=Kenny Rogers - The Most Classic Of
DYEAR=2015
DGENRE=Country
TTITLE0=Lady
TTITLE1=Stardust
TTITLE2=The King of Oak Street
TTITLE3=Somewhere My Love
TTITLE4=Crazy
TTITLE5=When I Fall In Love
TTITLE6=Love Me Tender
TTITLE7=Desperado
TTITLE8=Unforgettable
TTITLE9=Today I Started Loving You Again
TTITLE10=Unchained Melody
TTITLE11=Evergreen
TTITLE12=Endless Love
TTITLE13=Have I Told you Lately That I love you
TTITLE14=Buy Me A Rose(featuring Alison Krauss and Billy Dean)
TTITLE15=Misty
TTITLE16=A Love Song
TTITLE17=I Don't need you
EXTD=
EXTT0=
EXTT1=
EXTT2=
EXTT3=
EXTT4=
EXTT5=
EXTT6=
EXTT7=
EXTT8=
EXTT9=
EXTT10=
EXTT11=
EXTT12=
EXTT13=
EXTT14=
EXTT15=
EXTT16=
EXTT17=
PLAYORDER=
